/videos/b57d9ddb-fe62-fd71-61a9-008354938ac8/hls1/main/398.ts

{"Protocol":0,"Id":"b57d9ddbfe62fd7161a9008354938ac8","Path":"/data/tvshows/The IT Crowd/Season 3/The IT Crowd - S03E01 - From Hell WEBDL-720p Proper.mp4","EncoderPath":null,"EncoderProtocol":null,"Type":0,"Container":"mov,mp4,m4a,3gp,3g2,mj2","Size":175234352,"Name":"The IT Crowd - S03E01 - From Hell WEBDL-720p Proper","IsRemote":false,"ETag":"96f72b8863c1b5d5e586b5af3ba14e36","RunTimeTicks":13890239488,"ReadAtNativeFramerate":false,"IgnoreDts":false,"IgnoreIndex":false,"GenPtsInput":false,"SupportsTranscoding":true,"SupportsDirectStream":true,"SupportsDirectPlay":true,"IsInfiniteStream":false,"RequiresOpening":false,"OpenToken":null,"RequiresClosing":false,"LiveStreamId":null,"BufferMs":null,"RequiresLooping":false,"SupportsProbing":true,"VideoType":0,"IsoType":null,"Video3DFormat":null,"MediaStreams":[{"Codec":"subrip","CodecTag":null,"Language":"eng","ColorRange":null,"ColorSpace":null,"ColorTransfer":null,"ColorPrimaries":null,"DvVersionMajor":null,"DvVersionMinor":null,"DvProfile":null,"DvLevel":null,"RpuPresentFlag":null,"ElPresentFlag":null,"BlPresentFlag":null,"DvBlSignalCompatibilityId":null,"Comment":null,"TimeBase":"1/1000","CodecTimeBase":null,"Title":null,"VideoRange":null,"VideoRangeType":null,"VideoDoViTitle":null,"LocalizedUndefined":"Undefined","LocalizedDefault":"Default","LocalizedForced":"Forced","LocalizedExternal":"External","DisplayTitle":"English - Forced - SUBRIP - External","NalLengthSize":null,"IsInterlaced":false,"IsAVC":null,"ChannelLayout":null,"BitRate":null,"BitDepth":null,"RefFrames":null,"PacketLength":null,"Channels":null,"SampleRate":null,"IsDefault":false,"IsForced":true,"Height":null,"Width":null,"AverageFrameRate":null,"RealFrameRate":null,"Profile":null,"Type":2,"AspectRatio":null,"Index":0,"Score":null,"IsExternal":true,"DeliveryMethod":null,"DeliveryUrl":null,"IsExternalUrl":null,"IsTextSubtitleStream":true,"SupportsExternalStream":true,"Path":"/data/tvshows/The IT Crowd/Season 3/The IT Crowd - S03E01 - From Hell WEBDL-720p Proper.en.forced.srt","PixelFormat":null,"Level":0,"IsAnamorphic":null},{"Codec":"h264","CodecTag":"avc1","Language":"und","ColorRange":null,"ColorSpace":"bt709","ColorTransfer":"bt709","ColorPrimaries":"bt709","DvVersionMajor":null,"DvVersionMinor":null,"DvProfile":null,"DvLevel":null,"RpuPresentFlag":null,"ElPresentFlag":null,"BlPresentFlag":null,"DvBlSignalCompatibilityId":null,"Comment":null,"TimeBase":"1/16000","CodecTimeBase":null,"Title":null,"VideoRange":"SDR","VideoRangeType":"SDR","VideoDoViTitle":null,"LocalizedUndefined":null,"LocalizedDefault":null,"LocalizedForced":null,"LocalizedExternal":null,"DisplayTitle":"720p H264 SDR","NalLengthSize":"4","IsInterlaced":false,"IsAVC":true,"ChannelLayout":null,"BitRate":873326,"BitDepth":8,"RefFrames":1,"PacketLength":null,"Channels":null,"SampleRate":null,"IsDefault":true,"IsForced":false,"Height":720,"Width":1250,"AverageFrameRate":25,"RealFrameRate":25,"Profile":"Main","Type":1,"AspectRatio":"125:72","Index":1,"Score":null,"IsExternal":false,"DeliveryMethod":null,"DeliveryUrl":null,"IsExternalUrl":null,"IsTextSubtitleStream":false,"SupportsExternalStream":false,"Path":null,"PixelFormat":"yuv420p","Level":52,"IsAnamorphic":null},{"Codec":"mov_text","CodecTag":"tx3g","Language":"eng","ColorRange":null,"ColorSpace":null,"ColorTransfer":null,"ColorPrimaries":null,"DvVersionMajor":null,"DvVersionMinor":null,"DvProfile":null,"DvLevel":null,"RpuPresentFlag":null,"ElPresentFlag":null,"BlPresentFlag":null,"DvBlSignalCompatibilityId":null,"Comment":null,"TimeBase":"1/1000000","CodecTimeBase":null,"Title":null,"VideoRange":null,"VideoRangeType":null,"VideoDoViTitle":null,"LocalizedUndefined":"Undefined","LocalizedDefault":"Default","LocalizedForced":"Forced","LocalizedExternal":"External","DisplayTitle":"English - Default - Forced - MOV_TEXT","NalLengthSize":null,"IsInterlaced":false,"IsAVC":null,"ChannelLayout":null,"BitRate":79,"BitDepth":null,"RefFrames":null,"PacketLength":null,"Channels":null,"SampleRate":null,"IsDefault":true,"IsForced":true,"Height":null,"Width":null,"AverageFrameRate":null,"RealFrameRate":null,"Profile":null,"Type":2,"AspectRatio":null,"Index":2,"Score":null,"IsExternal":false,"DeliveryMethod":null,"DeliveryUrl":null,"IsExternalUrl":null,"IsTextSubtitleStream":true,"SupportsExternalStream":true,"Path":null,"PixelFormat":null,"Level":0,"IsAnamorphic":null},{"Codec":"aac","CodecTag":"mp4a","Language":"eng","ColorRange":null,"ColorSpace":null,"ColorTransfer":null,"ColorPrimaries":null,"DvVersionMajor":null,"DvVersionMinor":null,"DvProfile":null,"DvLevel":null,"RpuPresentFlag":null,"ElPresentFlag":null,"BlPresentFlag":null,"DvBlSignalCompatibilityId":null,"Comment":null,"TimeBase":"1/48000","CodecTimeBase":null,"Title":null,"VideoRange":null,"VideoRangeType":null,"VideoDoViTitle":null,"LocalizedUndefined":null,"LocalizedDefault":null,"LocalizedForced":null,"LocalizedExternal":null,"DisplayTitle":"English - AAC - Stereo - Default","NalLengthSize":null,"IsInterlaced":false,"IsAVC":null,"ChannelLayout":"stereo","BitRate":129721,"BitDepth":null,"RefFrames":null,"PacketLength":null,"Channels":2,"SampleRate":48000,"IsDefault":true,"IsForced":false,"Height":null,"Width":null,"AverageFrameRate":null,"RealFrameRate":null,"Profile":"LC","Type":0,"AspectRatio":null,"Index":3,"Score":null,"IsExternal":false,"DeliveryMethod":null,"DeliveryUrl":null,"IsExternalUrl":null,"IsTextSubtitleStream":false,"SupportsExternalStream":false,"Path":null,"PixelFormat":null,"Level":0,"IsAnamorphic":null}],"MediaAttachments":[],"Formats":[],"Bitrate":1009251,"Timestamp":null,"RequiredHttpHeaders":{},"TranscodingUrl":null,"TranscodingSubProtocol":null,"TranscodingContainer":null,"AnalyzeDurationMs":null,"DefaultAudioStreamIndex":null,"DefaultSubtitleStreamIndex":null}

/usr/lib/jellyfin-ffmpeg/ffmpeg -analyzeduration 200M -ss 00:19:54.000 -f mov,mp4,m4a,3gp,3g2,mj2 -autorotate 0 -i file:"/data/tvshows/The IT Crowd/Season 3/The IT Crowd - S03E01 - From Hell WEBDL-720p Proper.mp4" -map_metadata -1 -map_chapters -1 -threads 0 -map 0:0 -map 0:2 -map -0:s -codec:v:0 libx264 -preset veryfast -crf 23 -maxrate 4366630 -bufsize 8733260 -profile:v:0 main -level 51 -x264opts:0 subme=0:me_range=4:rc_lookahead=10:me=dia:no_chroma_me:8x8dct=0:partitions=none -force_key_frames:0 "expr:gte(t,1194+n_forced*3)" -sc_threshold:v:0 0 -vf "setparams=color_primaries=bt709:color_trc=bt709:colorspace=bt709,scale=trunc(min(max(iw\,ih*a)\,min(1250\,720*a))/2)*2:trunc(min(max(iw/a\,ih)\,min(1250/a\,720))/2)*2,format=yuv420p" -start_at_zero -codec:a:0 copy -copyts -avoid_negative_ts disabled -max_muxing_queue_size 2048 -f hls -max_delay 5000000 -hls_time 3 -hls_segment_type mpegts -start_number 398 -hls_segment_filename "/config/data/transcodes/0c4b53f575966471bf14a2f5007cd63a%d.ts" -hls_playlist_type vod -hls_list_size 0 -y "/config/data/transcodes/0c4b53f575966471bf14a2f5007cd63a.m3u8"


ffmpeg version 5.1.3-Jellyfin Copyright (c) 2000-2022 the FFmpeg developers
  built with gcc 11 (Ubuntu 11.3.0-1ubuntu1~22.04.1)
  configuration: --prefix=/usr/lib/jellyfin-ffmpeg --target-os=linux --extra-libs=-lfftw3f --extra-version=Jellyfin --disable-doc --disable-ffplay --disable-ptx-compression --disable-static --disable-libxcb --disable-sdl2 --disable-xlib --enable-lto --enable-gpl --enable-version3 --enable-shared --enable-gmp --enable-gnutls --enable-chromaprint --enable-libdrm --enable-libass --enable-libfreetype --enable-libfribidi --enable-libfontconfig --enable-libbluray --enable-libmp3lame --enable-libopus --enable-libtheora --enable-libvorbis --enable-libopenmpt --enable-libdav1d --enable-libwebp --enable-libvpx --enable-libx264 --enable-libx265 --enable-libzvbi --enable-libzimg --enable-libfdk-aac --arch=amd64 --enable-libsvtav1 --enable-libshaderc --enable-libplacebo --enable-vulkan --enable-opencl --enable-vaapi --enable-amf --enable-libmfx --enable-ffnvcodec --enable-cuda --enable-cuda-llvm --enable-cuvid --enable-nvdec --enable-nvenc
  libavutil      57. 28.100 / 57. 28.100
  libavcodec     59. 37.100 / 59. 37.100
  libavformat    59. 27.100 / 59. 27.100
  libavdevice    59.  7.100 / 59.  7.100
  libavfilter     8. 44.100 /  8. 44.100
  libswscale      6.  7.100 /  6.  7.100
  libswresample   4.  7.100 /  4.  7.100
  libpostproc    56.  6.100 / 56.  6.100
Input #0, mov,mp4,m4a,3gp,3g2,mj2, from 'file:/data/tvshows/The IT Crowd/Season 3/The IT Crowd - S03E01 - From Hell WEBDL-720p Proper.mp4':
  Metadata:
    major_brand     : isom
    minor_version   : 512
    compatible_brands: isomiso2avc1mp41
    encoder         : Lavf60.3.100
  Duration: 00:23:09.02, start: 0.000000, bitrate: 1009 kb/s
  Stream #0:0[0x1](und): Video: h264 (Main) (avc1 / 0x31637661), yuv420p(tv, bt709, progressive), 1250x720 [SAR 1:1 DAR 125:72], 873 kb/s, 25 fps, 25 tbr, 16k tbn (default)
    Metadata:
      handler_name    : VideoHandler
      vendor_id       : [0][0][0][0]
  Stream #0:1[0x2](eng): Subtitle: mov_text (tx3g / 0x67337874), 0 kb/s (default) (forced)
    Metadata:
      handler_name    : SubtitleHandler
  Stream #0:2[0x3](eng): Audio: aac (LC) (mp4a / 0x6134706D), 48000 Hz, stereo, fltp, 129 kb/s (default)
    Metadata:
      handler_name    : SoundHandler
      vendor_id       : [0][0][0][0]
Stream mapping:
  Stream #0:0 -> #0:0 (h264 (native) -> h264 (libx264))
  Stream #0:2 -> #0:1 (copy)
Press [q] to stop, [?] for help
[libx264 @ 0x5647e0921200] using SAR=1/1
[libx264 @ 0x5647e0921200] using cpu capabilities: MMX2 SSE2Fast SSSE3 SSE4.2 AVX FMA3 BMI2 AVX2
[libx264 @ 0x5647e0921200] profile Main, level 5.1, 4:2:0, 8-bit
[libx264 @ 0x5647e0921200] 264 - core 163 r3060 5db6aa6 - H.264/MPEG-4 AVC codec - Copyleft 2003-2021 - http://www.videolan.org/x264.html - options: cabac=1 ref=1 deblock=1:0:0 analyse=0x1:0 me=dia subme=0 psy=1 psy_rd=1.00:0.00 mixed_ref=0 me_range=4 chroma_me=0 trellis=0 8x8dct=0 cqm=0 deadzone=21,11 fast_pskip=1 chroma_qp_offset=0 threads=6 lookahead_threads=1 sliced_threads=0 nr=0 decimate=1 interlaced=0 bluray_compat=0 constrained_intra=0 bframes=3 b_pyramid=2 b_adapt=1 b_bias=0 direct=1 weightb=1 open_gop=0 weightp=1 keyint=250 keyint_min=25 scenecut=0 intra_refresh=0 rc_lookahead=10 rc=crf mbtree=1 crf=23.0 qcomp=0.60 qpmin=0 qpmax=69 qpstep=4 vbv_maxrate=4366 vbv_bufsize=8733 crf_max=0.0 nal_hrd=none filler=0 ip_ratio=1.40 aq=1:1.00
Output #0, hls, to '/config/data/transcodes/0c4b53f575966471bf14a2f5007cd63a.m3u8':
  Metadata:
    encoder         : Lavf59.27.100
  Stream #0:0: Video: h264, yuv420p(tv, bt709, progressive), 1250x720 [SAR 1:1 DAR 125:72], q=2-31, 25 fps, 90k tbn (default)
    Metadata:
      encoder         : Lavc59.37.100 libx264
    Side data:
      cpb: bitrate max/min/avg: 4366000/0/0 buffer size: 8733000 vbv_delay: N/A
  Stream #0:1: Audio: aac (LC) (mp4a / 0x6134706D), 48000 Hz, stereo, fltp, 129 kb/s (default)
frame=    1 fps=0.0 q=0.0 size=N/A time=00:00:00.00 bitrate=N/A speed=   0x    
frame=   13 fps=0.0 q=0.0 size=N/A time=00:00:00.49 bitrate=N/A speed=0.668x    
frame=   20 fps= 15 q=0.0 size=N/A time=00:00:00.76 bitrate=N/A speed=0.587x    
frame=   64 fps= 35 q=28.0 size=N/A time=00:00:02.53 bitrate=N/A speed= 1.4x    
frame=  121 fps= 52 q=28.0 size=N/A time=00:00:04.82 bitrate=N/A speed=2.07x    
frame=  143 fps= 51 q=28.0 size=N/A time=00:00:05.69 bitrate=N/A speed=2.02x    
frame=  173 fps= 52 q=28.0 size=N/A time=00:00:06.89 bitrate=N/A speed=2.07x    
frame=  221 fps= 58 q=28.0 size=N/A time=00:00:08.81 bitrate=N/A speed= 2.3x    
[hls @ 0x5647e07757c0] Opening '/config/data/transcodes/0c4b53f575966471bf14a2f5007cd63a398.ts' for writing
frame=  271 fps= 60 q=28.0 size=N/A time=00:00:10.81 bitrate=N/A speed=2.39x    
frame=  338 fps= 67 q=28.0 size=N/A time=00:00:13.50 bitrate=N/A speed=2.69x    
frame=  387 fps= 70 q=28.0 size=N/A time=00:00:15.46 bitrate=N/A speed=2.79x    
frame=  423 fps= 69 q=28.0 size=N/A time=00:00:16.89 bitrate=N/A speed=2.75x    
frame=  457 fps= 69 q=28.0 size=N/A time=00:00:18.26 bitrate=N/A speed=2.74x    
frame=  497 fps= 69 q=28.0 size=N/A time=00:00:19.86 bitrate=N/A speed=2.77x    
[hls @ 0x5647e07757c0] Opening '/config/data/transcodes/0c4b53f575966471bf14a2f5007cd63a399.ts' for writing
frame=  529 fps= 68 q=28.0 size=N/A time=00:00:21.14 bitrate=N/A speed=2.74x    
frame=  586 fps= 71 q=28.0 size=N/A time=00:00:23.42 bitrate=N/A speed=2.84x    
frame=  657 fps= 75 q=28.0 size=N/A time=00:00:26.26 bitrate=N/A speed=3.01x    
frame=  723 fps= 78 q=28.0 size=N/A time=00:00:28.90 bitrate=N/A speed=3.13x    
[hls @ 0x5647e07757c0] Opening '/config/data/transcodes/0c4b53f575966471bf14a2f5007cd63a400.ts' for writing
frame=  771 fps= 78 q=28.0 size=N/A time=00:00:30.82 bitrate=N/A speed=3.13x    
frame=  838 fps= 81 q=28.0 size=N/A time=00:00:33.49 bitrate=N/A speed=3.24x    
frame=  901 fps= 83 q=28.0 size=N/A time=00:00:36.01 bitrate=N/A speed=3.32x    
frame=  948 fps= 84 q=28.0 size=N/A time=00:00:37.88 bitrate=N/A speed=3.34x    
frame=  999 fps= 84 q=28.0 size=N/A time=00:00:39.93 bitrate=N/A speed=3.37x    
[hls @ 0x5647e07757c0] Opening '/config/data/transcodes/0c4b53f575966471bf14a2f5007cd63a401.ts' for writing
frame= 1039 fps= 84 q=28.0 size=N/A time=00:00:41.53 bitrate=N/A speed=3.36x    
frame= 1097 fps= 85 q=28.0 size=N/A time=00:00:43.86 bitrate=N/A speed=3.41x    
frame= 1146 fps= 86 q=28.0 size=N/A time=00:00:45.82 bitrate=N/A speed=3.43x    
frame= 1193 fps= 86 q=28.0 size=N/A time=00:00:47.70 bitrate=N/A speed=3.44x    
frame= 1240 fps= 86 q=28.0 size=N/A time=00:00:49.57 bitrate=N/A speed=3.45x    
[hls @ 0x5647e07757c0] Opening '/config/data/transcodes/0c4b53f575966471bf14a2f5007cd63a402.ts' for writing
frame= 1293 fps= 87 q=28.0 size=N/A time=00:00:51.69 bitrate=N/A speed=3.48x    
frame= 1322 fps= 86 q=28.0 size=N/A time=00:00:52.86 bitrate=N/A speed=3.44x    
frame= 1363 fps= 86 q=28.0 size=N/A time=00:00:54.50 bitrate=N/A speed=3.43x    
frame= 1397 fps= 85 q=28.0 size=N/A time=00:00:55.85 bitrate=N/A speed=3.41x    
frame= 1444 fps= 86 q=28.0 size=N/A time=00:00:57.72 bitrate=N/A speed=3.42x    
frame= 1503 fps= 86 q=28.0 size=N/A time=00:01:00.09 bitrate=N/A speed=3.46x    
[hls @ 0x5647e07757c0] Opening '/config/data/transcodes/0c4b53f575966471bf14a2f5007cd63a403.ts' for writing
frame= 1565 fps= 88 q=28.0 size=N/A time=00:01:02.57 bitrate=N/A speed= 3.5x    
frame= 1613 fps= 88 q=28.0 size=N/A time=00:01:04.49 bitrate=N/A speed=3.51x    
frame= 1657 fps= 88 q=28.0 size=N/A time=00:01:06.26 bitrate=N/A speed=3.51x    
frame= 1693 fps= 87 q=28.0 size=N/A time=00:01:07.69 bitrate=N/A speed=3.49x    
frame= 1742 fps= 87 q=28.0 size=N/A time=00:01:09.65 bitrate=N/A speed= 3.5x    
[hls @ 0x5647e07757c0] Opening '/config/data/transcodes/0c4b53f575966471bf14a2f5007cd63a404.ts' for writing
frame= 1784 fps= 87 q=28.0 size=N/A time=00:01:11.33 bitrate=N/A speed=3.49x    
frame= 1814 fps= 86 q=28.0 size=N/A time=00:01:12.53 bitrate=N/A speed=3.46x    
frame= 1842 fps= 86 q=28.0 size=N/A time=00:01:13.66 bitrate=N/A speed=3.42x    
frame= 1889 fps= 86 q=28.0 size=N/A time=00:01:15.54 bitrate=N/A speed=3.43x    
frame= 1929 fps= 85 q=28.0 size=N/A time=00:01:17.14 bitrate=N/A speed=3.41x    
frame= 1967 fps= 85 q=28.0 size=N/A time=00:01:18.65 bitrate=N/A speed=3.41x    
frame= 1999 fps= 85 q=28.0 size=N/A time=00:01:19.93 bitrate=N/A speed=3.38x    
[hls @ 0x5647e07757c0] Opening '/config/data/transcodes/0c4b53f575966471bf14a2f5007cd63a405.ts' for writing
frame= 2039 fps= 85 q=28.0 size=N/A time=00:01:21.53 bitrate=N/A speed=3.38x    
frame= 2071 fps= 84 q=28.0 size=N/A time=00:01:22.81 bitrate=N/A speed=3.35x    
frame= 2119 fps= 84 q=28.0 size=N/A time=00:01:24.73 bitrate=N/A speed=3.36x    
frame= 2177 fps= 85 q=28.0 size=N/A time=00:01:27.06 bitrate=N/A speed=3.38x    
frame= 2229 fps= 85 q=28.0 size=N/A time=00:01:29.13 bitrate=N/A speed=3.39x    
frame= 2265 fps= 84 q=28.0 size=N/A time=00:01:30.58 bitrate=N/A speed=3.38x    
[hls @ 0x5647e07757c0] Opening '/config/data/transcodes/0c4b53f575966471bf14a2f5007cd63a406.ts' for writing
frame= 2292 fps= 84 q=28.0 size=N/A time=00:01:31.64 bitrate=N/A speed=3.36x    
frame= 2344 fps= 84 q=28.0 size=N/A time=00:01:33.73 bitrate=N/A speed=3.37x    
frame= 2378 fps= 84 q=28.0 size=N/A time=00:01:35.10 bitrate=N/A speed=3.36x    
frame= 2400 fps= 83 q=28.0 size=N/A time=00:01:35.97 bitrate=N/A speed=3.33x    
frame= 2437 fps= 83 q=28.0 size=N/A time=00:01:37.45 bitrate=N/A speed=3.32x    
frame= 2473 fps= 83 q=28.0 size=N/A time=00:01:38.90 bitrate=N/A speed=3.31x    
frame= 2506 fps= 82 q=28.0 size=N/A time=00:01:40.22 bitrate=N/A speed= 3.3x    
[hls @ 0x5647e07757c0] Opening '/config/data/transcodes/0c4b53f575966471bf14a2f5007cd63a407.ts' for writing
frame= 2521 fps= 81 q=28.0 size=N/A time=00:01:40.82 bitrate=N/A speed=3.26x    
frame= 2547 fps= 81 q=28.0 size=N/A time=00:01:41.86 bitrate=N/A speed=3.23x    
frame= 2569 fps= 80 q=28.0 size=N/A time=00:01:42.74 bitrate=N/A speed=3.21x    
frame= 2600 fps= 80 q=28.0 size=N/A time=00:01:43.97 bitrate=N/A speed= 3.2x    
frame= 2651 fps= 80 q=28.0 size=N/A time=00:01:46.02 bitrate=N/A speed=3.21x    
frame= 2706 fps= 81 q=28.0 size=N/A time=00:01:48.22 bitrate=N/A speed=3.23x    
frame= 2770 fps= 81 q=28.0 size=N/A time=00:01:50.78 bitrate=N/A speed=3.25x    
[hls @ 0x5647e07757c0] Opening '/config/data/transcodes/0c4b53f575966471bf14a2f5007cd63a408.ts' for writing
frame= 2813 fps= 81 q=28.0 size=N/A time=00:01:52.49 bitrate=N/A speed=3.26x    
frame= 2851 fps= 81 q=28.0 size=N/A time=00:01:54.02 bitrate=N/A speed=3.25x    
frame= 2892 fps= 81 q=28.0 size=N/A time=00:01:55.64 bitrate=N/A speed=3.25x    
frame= 2926 fps= 81 q=28.0 size=N/A time=00:01:57.01 bitrate=N/A speed=3.24x    
frame= 2961 fps= 81 q=28.0 size=N/A time=00:01:58.42 bitrate=N/A speed=3.23x    
frame= 2997 fps= 81 q=28.0 size=N/A time=00:01:59.85 bitrate=N/A speed=3.23x    
[hls @ 0x5647e07757c0] Opening '/config/data/transcodes/0c4b53f575966471bf14a2f5007cd63a409.ts' for writing
frame= 3025 fps= 80 q=28.0 size=N/A time=00:02:00.98 bitrate=N/A speed=3.21x    
frame= 3048 fps= 80 q=28.0 size=N/A time=00:02:01.89 bitrate=N/A speed=3.19x    
frame= 3077 fps= 79 q=28.0 size=N/A time=00:02:03.05 bitrate=N/A speed=3.18x    
frame= 3113 fps= 79 q=28.0 size=N/A time=00:02:04.50 bitrate=N/A speed=3.17x    
frame= 3159 fps= 79 q=28.0 size=N/A time=00:02:06.33 bitrate=N/A speed=3.18x    
frame= 3203 fps= 80 q=28.0 size=N/A time=00:02:08.10 bitrate=N/A speed=3.18x    
frame= 3232 fps= 79 q=28.0 size=N/A time=00:02:09.25 bitrate=N/A speed=3.17x    
frame= 3257 fps= 79 q=28.0 size=N/A time=00:02:10.26 bitrate=N/A speed=3.16x    
[hls @ 0x5647e07757c0] Opening '/config/data/transcodes/0c4b53f575966471bf14a2f5007cd63a410.ts' for writing
frame= 3279 fps= 79 q=28.0 size=N/A time=00:02:11.13 bitrate=N/A speed=3.14x    
frame= 3297 fps= 78 q=28.0 size=N/A time=00:02:11.86 bitrate=N/A speed=3.12x    
frame= 3332 fps= 78 q=28.0 size=N/A time=00:02:13.24 bitrate=N/A speed=3.11x    
frame= 3370 fps= 78 q=28.0 size=N/A time=00:02:14.78 bitrate=N/A speed=3.11x    
frame= 3388 fps= 77 q=28.0 size=N/A time=00:02:15.48 bitrate=N/A speed=3.09x    
frame= 3421 fps= 77 q=28.0 size=N/A time=00:02:16.81 bitrate=N/A speed=3.09x    
frame= 3451 fps= 77 q=28.0 size=N/A time=00:02:18.02 bitrate=N/A speed=3.08x    
frame= 3475 fps= 77 q=28.0 size=N/A time=00:02:18.98 bitrate=N/A speed=3.06x    
frame= 3494 fps= 76 q=28.0 size=N/A time=00:02:19.73 bitrate=N/A speed=3.04x    
[hls @ 0x5647e07757c0] Opening '/config/data/transcodes/0c4b53f575966471bf14a2f5007cd63a411.ts' for writing
frame= 3526 fps= 76 q=28.0 size=N/A time=00:02:21.01 bitrate=N/A speed=3.03x    
frame= 3560 fps= 76 q=28.0 size=N/A time=00:02:22.37 bitrate=N/A speed=3.03x    
frame= 3603 fps= 76 q=28.0 size=N/A time=00:02:24.10 bitrate=N/A speed=3.03x    
frame= 3643 fps= 76 q=28.0 size=N/A time=00:02:25.70 bitrate=N/A speed=3.04x    
frame= 3679 fps= 76 q=28.0 size=N/A time=00:02:27.13 bitrate=N/A speed=3.03x    
frame= 3718 fps= 76 q=28.0 size=N/A time=00:02:28.69 bitrate=N/A speed=3.03x    
[hls @ 0x5647e07757c0] Opening '/config/data/transcodes/0c4b53f575966471bf14a2f5007cd63a412.ts' for writing
frame= 3771 fps= 76 q=28.0 size=N/A time=00:02:30.82 bitrate=N/A speed=3.05x    
frame= 3808 fps= 76 q=28.0 size=N/A time=00:02:32.29 bitrate=N/A speed=3.05x    
frame= 3847 fps= 76 q=28.0 size=N/A time=00:02:33.85 bitrate=N/A speed=3.05x    
frame= 3895 fps= 76 q=28.0 size=N/A time=00:02:35.77 bitrate=N/A speed=3.05x    
frame= 3948 fps= 77 q=28.0 size=N/A time=00:02:37.88 bitrate=N/A speed=3.06x    
frame= 3993 fps= 77 q=28.0 size=N/A time=00:02:39.70 bitrate=N/A speed=3.07x    
[hls @ 0x5647e07757c0] Opening '/config/data/transcodes/0c4b53f575966471bf14a2f5007cd63a413.ts' for writing
frame= 4053 fps= 77 q=28.0 size=N/A time=00:02:42.09 bitrate=N/A speed=3.09x    
frame= 4086 fps= 77 q=28.0 size=N/A time=00:02:43.41 bitrate=N/A speed=3.08x    
frame= 4141 fps= 77 q=28.0 size=N/A time=00:02:45.61 bitrate=N/A speed=3.09x    
frame= 4196 fps= 78 q=28.0 size=N/A time=00:02:47.80 bitrate=N/A speed=3.11x    
frame= 4243 fps= 78 q=28.0 size=N/A time=00:02:49.70 bitrate=N/A speed=3.11x    
[hls @ 0x5647e07757c0] Opening '/config/data/transcodes/0c4b53f575966471bf14a2f5007cd63a414.ts' for writing
frame= 4287 fps= 78 q=28.0 size=N/A time=00:02:51.45 bitrate=N/A speed=3.11x    
frame= 4334 fps= 78 q=28.0 size=N/A time=00:02:53.33 bitrate=N/A speed=3.12x    
frame= 4390 fps= 78 q=28.0 size=N/A time=00:02:55.57 bitrate=N/A speed=3.13x    
frame= 4443 fps= 78 q=28.0 size=N/A time=00:02:57.70 bitrate=N/A speed=3.14x    
frame= 4494 fps= 79 q=28.0 size=N/A time=00:02:59.73 bitrate=N/A speed=3.15x    
[hls @ 0x5647e07757c0] Opening '/config/data/transcodes/0c4b53f575966471bf14a2f5007cd63a415.ts' for writing
frame= 4532 fps= 79 q=28.0 size=N/A time=00:03:01.24 bitrate=N/A speed=3.15x    
frame= 4578 fps= 79 q=28.0 size=N/A time=00:03:03.10 bitrate=N/A speed=3.15x    
frame= 4635 fps= 79 q=28.0 size=N/A time=00:03:05.38 bitrate=N/A speed=3.16x    
frame= 4704 fps= 80 q=28.0 size=N/A time=00:03:08.13 bitrate=N/A speed=3.18x    
frame= 4761 fps= 80 q=28.0 size=N/A time=00:03:10.42 bitrate=N/A speed=3.19x    
[hls @ 0x5647e07757c0] Opening '/config/data/transcodes/0c4b53f575966471bf14a2f5007cd63a416.ts' for writing
frame= 4789 fps= 80 q=28.0 size=N/A time=00:03:11.53 bitrate=N/A speed=3.19x    
frame= 4833 fps= 80 q=28.0 size=N/A time=00:03:13.30 bitrate=N/A speed=3.19x    
[hls @ 0x5647e07757c0] Opening '/config/data/transcodes/0c4b53f575966471bf14a2f5007cd63a417.ts' for writing
frame= 4875 fps= 80 q=-1.0 Lsize=N/A time=00:03:14.83 bitrate=N/A speed=3.19x    
video:16697kB audio:3175kB subtitle:0kB other streams:0kB global headers:0kB muxing overhead: unknown
[libx264 @ 0x5647e0921200] frame I:20    Avg QP:15.00  size: 37865
[libx264 @ 0x5647e0921200] frame P:1420  Avg QP:19.54  size:  8035
[libx264 @ 0x5647e0921200] frame B:3435  Avg QP:22.28  size:  1435
[libx264 @ 0x5647e0921200] consecutive B-frames:  2.5%  9.8%  2.3% 85.4%
[libx264 @ 0x5647e0921200] mb I  I16..4: 44.6%  0.0% 55.4%
[libx264 @ 0x5647e0921200] mb P  I16..4: 13.8%  0.0%  0.0%  P16..4: 34.0%  0.0%  0.0%  0.0%  0.0%    skip:52.1%
[libx264 @ 0x5647e0921200] mb B  I16..4:  1.1%  0.0%  0.0%  B16..8:  7.5%  0.0%  0.0%  direct: 3.1%  skip:88.4%  L0:37.6% L1:49.7% BI:12.7%
[libx264 @ 0x5647e0921200] coded y,uvDC,uvAC intra: 20.8% 33.9% 5.2% inter: 3.9% 6.5% 0.0%
[libx264 @ 0x5647e0921200] i16 v,h,dc,p: 52% 22% 10% 16%
[libx264 @ 0x5647e0921200] i4 v,h,dc,ddl,ddr,vr,hd,vl,hu: 29% 22% 10%  8%  6%  6%  6%  6%  7%
[libx264 @ 0x5647e0921200] i8c dc,h,v,p: 53% 18% 21%  8%
[libx264 @ 0x5647e0921200] Weighted P-Frames: Y:8.5% UV:4.1%
[libx264 @ 0x5647e0921200] kb/s:701.43